<?xml version="1.0" encoding="UTF-8"?>
<svg width="49px" height="49px" viewBox="0 0 49 49" version="1.1" xmlns="http://www.w3.org/2000/svg" xmlns:xlink="http://www.w3.org/1999/xlink">
    <!-- Generator: Sketch 51 (57462) - http://www.bohemiancoding.com/sketch -->
    <title>Artboard 8</title>
    <desc>Created with Sketch.</desc>
    <defs>
        <polygon id="path-1" points="0 0 44 0 44 44 0 44"></polygon>
    </defs>
    <g id="Artboard-8" stroke="none" stroke-width="1" fill="none" fill-rule="evenodd">
        <g id="fire-copy" transform="translate(3.000000, 2.000000)">
            <polygon id="Shape" points="0 0 44 0 44 44 0 44"></polygon>
            <g id="Clipped">
                <mask id="mask-2" fill="white">
                    <use xlink:href="#path-1"></use>
                </mask>
                <g id="Shape"></g>
                <g id="Group" mask="url(#mask-2)">
                    <g transform="translate(2.750000, 2.750000)">
                        <path d="M19.25,38.5 C10.137875,38.5 2.75,31.112125 2.75,22 C2.75,16.795625 2.75,12.375 2.75,12.375 L5.88225,12.375 C7.6285,12.375 9.348625,12.617 11,13.08175 L11,12.37225 C11,5.539875 16.5385,0 23.37225,0 L23.375,0 L23.375,6.36625 C25.135,5.797 26.9885,5.5 28.87225,5.5 L28.875,5.5 L28.875,19.375125 C31.01175,18.396125 33.352,17.875 35.74725,17.875 L35.75,17.875 L35.75,22 C35.75,31.112125 28.362125,38.5 19.25,38.5 Z M38.5,6.875 L38.5,8.817875 C38.5,10.489875 37.835875,12.0945 36.652,13.277 C35.4695,14.460875 33.864875,15.125 32.192875,15.125 C31.8395,15.125 31.625,15.125 31.625,15.125 C31.625,15.125 31.625,14.3055 31.625,13.182125 C31.625,11.510125 32.289125,9.9055 33.473,8.723 C34.6555,7.539125 36.260125,6.875 37.932125,6.875 L38.5,6.875 Z M8.25,9.625 L6.307125,9.625 C4.635125,9.625 3.0305,8.960875 1.848,7.777 C0.664125,6.5945 -2.22044605e-16,4.989875 -2.22044605e-16,3.317875 C-2.22044605e-16,1.5015 -2.22044605e-16,0 -2.22044605e-16,0 L1.942875,0 C3.614875,0 5.2195,0.664125 6.402,1.848 C7.585875,3.0305 8.25,4.635125 8.25,6.307125 L8.25,9.625 Z" id="Shape" stroke="#000000" stroke-width="4" fill="none"></path>
                        <g id="Group" stroke="none" stroke-width="1" fill="none" fill-rule="evenodd">
                            <path d="M38.5,6.875 C38.5,6.875 38.2855,6.875 37.932125,6.875 C36.260125,6.875 34.6555,7.539125 33.473,8.723 C32.289125,9.9055 31.625,11.510125 31.625,13.182125 L31.625,15.125 L32.192875,15.125 C33.864875,15.125 35.4695,14.460875 36.652,13.277 C37.835875,12.0945 38.5,10.489875 38.5,8.817875 C38.5,7.6945 38.5,6.875 38.5,6.875 Z" id="Shape" fill="#F05400"></path>
                            <path d="M-2.22044605e-16,0 L1.942875,0 C3.614875,0 5.2195,0.664125 6.402,1.848 C7.585875,3.0305 8.25,4.635125 8.25,6.307125 L8.25,9.625 C8.25,9.625 7.4305,9.625 6.307125,9.625 C4.635125,9.625 3.0305,8.960875 1.848,7.777 C0.664125,6.5945 -2.22044605e-16,4.989875 -2.22044605e-16,3.317875 C-2.22044605e-16,1.5015 -2.22044605e-16,0 -2.22044605e-16,0 Z" id="Shape" fill="#F05400"></path>
                            <path d="M19.25,38.5 C10.137875,38.5 2.75,31.112125 2.75,22 C2.75,16.795625 2.75,12.375 2.75,12.375 L5.88225,12.375 C7.6285,12.375 9.348625,12.617 11,13.08175 L11,12.37225 C11,5.539875 16.5385,0 23.37225,0 L23.375,0 L23.375,6.36625 C25.135,5.797 26.9885,5.5 28.87225,5.5 L28.875,5.5 L28.875,19.375125 C31.01175,18.396125 33.352,17.875 35.74725,17.875 L35.75,17.875 L35.75,22 C35.75,31.112125 28.362125,38.5 19.25,38.5 Z" id="Shape" fill="#F05400"></path>
                        </g>
                        <path d="M21.99725,5.5 L22,5.5 L22,15.038375 C23.692625,14.19825 25.57225,13.75 27.49725,13.75 L27.5,13.75 L27.5,22 C27.5,22.595375 27.457375,23.181125 27.37625,23.7545 C28.292,23.507 29.255875,23.375 30.25,23.375 L33,23.375 C33,30.969125 26.844125,37.125 19.25,37.125 C11.655875,37.125 5.5,30.969125 5.5,23.375 C5.5,19.58825 5.5,16.5 5.5,16.5 L6.875,16.5 C8.815125,16.5 10.67,16.86575 12.375,17.53125 L12.375,15.12225 C12.375,9.807875 16.682875,5.5 21.99725,5.5 Z" id="Shape" stroke="none" fill="#F08C00" fill-rule="evenodd"></path>
                        <path d="M20.62225,13.75 L20.625,13.75 L20.625,20.623625 C21.8075,19.73675 23.252625,19.25 24.74725,19.25 L24.75,19.25 L24.75,24.75 C24.75,25.4265 24.652375,26.081 24.4695,26.698375 C25.40725,26.3285 26.428875,26.125 27.49725,26.125 L28.875,26.125 C28.875,30.68175 25.18175,34.375 20.625,34.375 L19.25,34.375 C13.17525,34.375 8.25,29.44975 8.25,23.375 C8.25,21.759375 8.25,20.625 8.25,20.625 L10.08425,20.625 C11.946,20.625 13.6785,21.1805 15.125,22.13475 L15.125,19.24725 C15.125,16.21125 17.58625,13.75 20.62225,13.75 Z" id="Shape" stroke="none" fill="#FFBF36" fill-rule="evenodd"></path>
                    </g>
                </g>
            </g>
        </g>
    </g>
</svg>